<?xml version="1.0" encoding="UTF-8" standalone="no"?>
<!-- Created with Inkscape (http://www.inkscape.org/) -->

<svg
   xmlns:dc="http://purl.org/dc/elements/1.1/"
   xmlns:cc="http://creativecommons.org/ns#"
   xmlns:rdf="http://www.w3.org/1999/02/22-rdf-syntax-ns#"
   xmlns:svg="http://www.w3.org/2000/svg"
   xmlns="http://www.w3.org/2000/svg"
   xmlns:sodipodi="http://sodipodi.sourceforge.net/DTD/sodipodi-0.dtd"
   xmlns:inkscape="http://www.inkscape.org/namespaces/inkscape"
   width="117.16666mm"
   height="63.778175mm"
   viewBox="0 0 415.15744 225.98566"
   id="svg2"
   version="1.1"
   inkscape:version="0.91 r13725"
   sodipodi:docname="Logo OAS 2010.svg">
  <defs
     id="defs4" />
  <sodipodi:namedview
     id="base"
     pagecolor="#ffffff"
     bordercolor="#666666"
     borderopacity="1.0"
     inkscape:pageopacity="0.0"
     inkscape:pageshadow="2"
     inkscape:zoom="1.4"
     inkscape:cx="123.97974"
     inkscape:cy="97.918175"
     inkscape:document-units="px"
     inkscape:current-layer="layer1"
     showgrid="false"
     inkscape:window-width="1920"
     inkscape:window-height="1010"
     inkscape:window-x="0"
     inkscape:window-y="33"
     inkscape:window-maximized="1"
     fit-margin-top="0"
     fit-margin-left="0"
     fit-margin-right="0"
     fit-margin-bottom="0" />
  <metadata
     id="metadata7">
    <rdf:RDF>
      <cc:Work
         rdf:about="">
        <dc:format>image/svg+xml</dc:format>
        <dc:type
           rdf:resource="http://purl.org/dc/dcmitype/StillImage" />
        <dc:title></dc:title>
      </cc:Work>
    </rdf:RDF>
  </metadata>
  <g
     inkscape:label="Capa 1"
     inkscape:groupmode="layer"
     id="layer1"
     transform="translate(-225.27843,-144.36937)">
    <g
       id="g4137">
      <path
         inkscape:connector-curvature="0"
         d="m 334.26198,294.2278 c 5.4533,-1.43602 10.54248,-4.1949 14.42286,-7.81874 8.7968,-8.21524 12.45947,-19.95333 13.10675,-42.00443 0.74471,-25.37046 -4.61914,-40.61437 -17.30506,-49.18046 -6.40146,-4.32254 -12.5115,-6.01549 -21.92455,-6.07478 -7.56535,-0.0477 -11.15216,0.69785 -17.1,3.55418 -15.18102,7.29035 -21.825,22.35143 -21.825,49.47451 0,13.6656 1.57128,23.77871 4.95878,31.91587 2.01417,4.83823 4.3816,8.20353 8.48978,12.06822 4.88108,4.59176 9.92375,7.14867 17.15144,8.69672 4.38809,0.93985 15.37412,0.59363 20.025,-0.63109 z m -17.325,44.67292 c -13.65293,-0.58775 -28.62632,-3.42487 -38.76712,-7.34548 -23.16386,-8.95557 -41.12665,-29.40092 -48.4647,-55.16281 -3.45437,-12.12735 -5.11787,-29.12 -4.15799,-42.47402 1.49738,-20.83205 6.20205,-36.7879 14.71066,-49.89115 6.41412,-9.87775 13.2417,-16.81999 22.91808,-23.30296 11.2319,-7.52513 24.20707,-12.1696 40.93607,-14.65309 6.17958,-0.91739 28.50742,-1.03545 35.20181,-0.18614 24.73123,3.13763 41.97507,10.89989 56.25809,25.3244 2.53545,2.56056 4.72764,5.12466 4.87153,5.69799 0.25942,1.03362 -1.12262,4.78779 -30.41163,82.60997 -5.72864,15.22125 -14.6773,39.015 -19.8859,52.875 -5.20861,13.86 -9.67359,25.32923 -9.92217,25.48717 -1.11105,0.70593 -15.72386,1.3467 -23.28673,1.02112 z"
         style="fill:#f3d65e"
         id="path3489" />
      <path
         inkscape:connector-curvature="0"
         d="m 629.05484,369.83093 c -1.313,-0.54309 -2.81261,-2.31168 -3.16543,-3.73319 -0.30703,-1.23706 -0.30626,-1.2375 2.16416,-1.2375 2.08786,0 2.5076,0.1388 2.70524,0.89458 0.35703,1.36531 2.44192,1.99353 3.75677,1.132 1.97908,-1.29674 1.24374,-2.48967 -2.08321,-3.37954 -3.49646,-0.9352 -5.27775,-2.08045 -5.8277,-3.74681 -1.29293,-3.91762 2.76334,-6.77905 8.40952,-5.93235 2.31372,0.34696 4.61565,2.24086 4.61565,3.79751 0,0.81523 -0.27356,0.93461 -2.14175,0.93461 -1.67518,0 -2.26787,-0.20194 -2.72066,-0.92697 -0.788,-1.26178 -3.46259,-1.08195 -3.46259,0.23282 0,0.70373 0.66833,1.08408 3.32374,1.89159 5.09674,1.54991 6.69258,3.68756 5.27886,7.07109 -1.01781,2.43594 -3.01305,3.43355 -6.8026,3.40127 -1.7325,-0.0148 -3.555,-0.19437 -4.05,-0.39911 z m -11.50988,-6.43319 c -0.0192,-0.30937 -0.40091,-1.575 -0.84829,-2.8125 -0.86921,-2.4043 -0.92196,-2.37156 -1.99389,1.2375 l -0.63486,2.1375 1.75596,0 c 1.12337,0 1.7434,-0.20264 1.72108,-0.5625 z m -10.21453,6.3 c 0.10829,-0.30937 1.47589,-3.95437 3.03912,-8.1 l 2.84223,-7.5375 2.74855,0 2.74856,0 2.92297,7.71115 c 1.60764,4.24113 2.99048,7.88613 3.07298,8.1 0.0825,0.21387 -1.06579,0.38885 -2.55174,0.38885 -2.63605,0 -2.70896,-0.0328 -2.99826,-1.35 -0.29221,-1.33041 -0.33877,-1.35 -3.20916,-1.35 -2.8317,0 -2.92574,0.0375 -3.38327,1.35 -0.4461,1.27969 -0.59974,1.35 -2.94973,1.35 -1.78831,0 -2.42427,-0.15674 -2.28225,-0.5625 z m -20.35059,-7.5375 0,-8.1 3.35766,0 3.35765,0 0.44418,1.6875 c 0.2443,0.92813 0.78854,3.07652 1.20942,4.77421 0.46051,1.85756 0.89328,2.84313 1.08679,2.475 0.17686,-0.33644 0.77684,-2.48484 1.33329,-4.77421 l 1.01173,-4.1625 3.32464,0 3.32464,0 0,8.1 0,8.1 -2.01194,0 -2.01194,0 -0.12556,-5.9625 -0.12556,-5.9625 -1.54158,5.9625 -1.54159,5.9625 -1.86363,0 -1.86364,0 -0.76958,-3.2625 c -0.42327,-1.79438 -1.15058,-4.4775 -1.61623,-5.9625 l -0.84666,-2.7 -0.041,5.9625 -0.041,5.9625 -2.025,0 -2.025,0 0,-8.1 z m -16.2,0 0,-8.1 6.525,0 6.525,0 0,1.575 0,1.575 -4.05,0 -4.05,0 0,1.35 0,1.35 3.825,0 3.825,0 0,1.575 0,1.575 -3.825,0 -3.825,0 0,1.8 0,1.8 4.275,0 4.275,0 0,1.8 0,1.8 -6.75,0 -6.75,0 0,-8.1 z m -12.6998,1.9125 -0.1252,-6.1875 -2.5875,-0.13495 -2.5875,-0.13496 0,-1.77754 0,-1.77755 7.65,0 7.65,0 0,1.8 0,1.8 -2.475,0 -2.475,0 0,6.3 0,6.3 -2.4623,0 -2.4623,0 -0.1252,-6.1875 z m -18.30682,5.64142 c -1.22815,-0.65735 -2.52956,-2.34535 -2.96162,-3.84142 -0.27803,-0.96272 -0.17072,-1.0125 2.18259,-1.0125 2.10275,0 2.51919,0.13924 2.76883,0.92578 0.62462,1.96801 4.71682,2.00311 4.71682,0.0404 0,-1.16637 -0.68954,-1.63276 -3.68258,-2.49078 -3.5827,-1.02707 -5.31742,-2.57823 -5.31742,-4.75476 0,-3.12727 2.53935,-4.96178 6.87695,-4.96818 3.20414,-0.005 6.17305,1.99006 6.17305,4.14762 0,1.25046 -4.06852,1.14412 -4.86241,-0.1271 -0.78151,-1.2514 -3.46259,-1.08301 -3.46259,0.21747 0,0.68749 0.70938,1.08122 3.44905,1.91435 4.38284,1.33281 5.99844,2.96985 5.63143,5.70614 -0.15797,1.17777 -0.70964,2.25091 -1.63061,3.17199 -1.30064,1.30079 -1.63462,1.40047 -5.09587,1.52094 -2.39118,0.0832 -4.08736,-0.0763 -4.78562,-0.45 z m -10.84338,-7.55392 0,-8.1 2.475,0 2.475,0 0,8.1 0,8.1 -2.475,0 -2.475,0 0,-8.1 z m -14.95684,7.39557 c -1.24648,-0.67633 -2.59316,-2.73988 -2.59316,-3.97357 0,-0.48326 0.60193,-0.71131 2.1375,-0.80984 1.91367,-0.1228 2.21927,-0.008 2.91839,1.10034 1.00907,1.59912 3.19736,1.85015 4.2507,0.48764 0.92509,-1.19661 0.16435,-1.86926 -3.49066,-3.08649 -4.88848,-1.62801 -6.28286,-3.55885 -4.84657,-6.71116 0.74404,-1.633 2.36767,-2.54064 5.03325,-2.81369 3.37783,-0.34601 5.99226,0.4852 7.06623,2.24657 1.37554,2.25596 1.18372,2.56463 -1.59384,2.56463 -1.88585,0 -2.475,-0.15864 -2.475,-0.66643 0,-0.7215 -1.67547,-1.3102 -3.00191,-1.05476 -0.46548,0.0897 -0.82309,0.54392 -0.82309,1.04558 0,0.70384 0.56115,1.03851 2.71668,1.62023 5.06395,1.36664 6.50832,2.55353 6.50832,5.34814 0,2.08437 -1.20865,4.0441 -2.94043,4.76769 -2.00796,0.83898 -7.2716,0.80046 -8.86641,-0.0649 z m -25.99316,-7.39557 0,-8.1 6.75,0 6.75,0 0,1.575 0,1.575 -4.275,0 -4.275,0 0,1.35 0,1.35 3.825,0 3.825,0 0,1.575 0,1.575 -3.825,0 -3.825,0 0,1.8 0,1.8 4.275,0 4.275,0 0,1.8 0,1.8 -6.75,0 -6.75,0 0,-8.1 z m -8.97485,3.67012 c 0.86518,-0.70058 1.02485,-1.26054 1.02485,-3.59419 0,-3.44386 -0.83367,-4.57593 -3.36975,-4.57593 l -1.73025,0 0,4.2 c 0,2.31 0.135,4.335 0.3,4.5 0.59066,0.59066 2.76892,0.28492 3.77515,-0.52988 z m -9.02515,-3.62272 0,-8.1474 5.06952,0 c 5.94903,0 7.62618,0.62874 9.06311,3.39764 1.21149,2.33449 1.20894,7.15416 -0.005,9.22704 -1.68792,2.88249 -2.81229,3.333 -8.76062,3.51022 l -5.36711,0.15989 0,-8.14739 z m -33.71869,-2.56012 c 0.99052,-1.19352 -0.0469,-2.1925 -2.4399,-2.34944 l -2.09141,-0.13715 0,1.59965 c 0,1.58927 0.0128,1.59966 1.9699,1.59966 1.24838,0 2.18655,-0.26105 2.56141,-0.71272 z m 16.54787,1.61272 c -0.50149,-1.485 -0.9801,-2.7 -1.06356,-2.7 -0.1527,0 -1.56562,4.63126 -1.56562,5.13176 0,0.14753 0.79672,0.26824 1.77049,0.26824 l 1.77049,0 -0.9118,-2.7 z m -26.02918,0.9 0,-8.1 5.59571,0 c 3.07763,0 6.10543,0.1938 6.72844,0.43067 1.52384,0.57936 2.69012,2.91048 2.33771,4.67252 -0.30344,1.51724 -1.87949,3.44681 -2.8153,3.44681 -0.86087,0 -0.73311,0.59823 0.26024,1.21859 0.47125,0.2943 1.53049,1.76051 2.35387,3.25825 0.82339,1.49774 1.60221,2.72136 1.7307,2.71917 0.1285,-0.002 1.54448,-3.54595 3.14662,-7.875 l 2.91299,-7.87101 2.77636,0 c 2.22541,0 2.83823,0.15628 3.08809,0.7875 1.08042,2.72945 5.63457,15.03601 5.63457,15.22614 0,0.1272 -1.15607,0.17054 -2.56905,0.0963 -2.32088,-0.12192 -2.59437,-0.24363 -2.83124,-1.25996 -0.24278,-1.0417 -0.48195,-1.13476 -3.23017,-1.2569 -2.94705,-0.13098 -2.97133,-0.12226 -3.44534,1.2375 l -0.47738,1.3694 -5.36767,0 -5.36767,0 -1.62978,-3.10149 c -1.47877,-2.81408 -2.27202,-3.64851 -3.46851,-3.64851 -0.22725,0 -0.41319,1.51875 -0.41319,3.375 l 0,3.375 -2.475,0 -2.475,0 0,-8.1 z m -8.7475,3.56962 c 1.28255,-1.41721 1.21121,-5.90351 -0.115,-7.23109 -2.03002,-2.03214 -5.17722,-0.87508 -5.73708,2.10922 -0.36265,1.93313 0.42993,4.97889 1.45041,5.57367 1.32453,0.77198 3.49585,0.54911 4.40167,-0.4518 z m -6.86124,3.89454 c -0.78855,-0.35559 -1.99462,-1.49408 -2.68014,-2.52998 -1.05021,-1.58697 -1.24641,-2.35769 -1.24641,-4.89611 0,-5.92467 3.92662,-9.2764 9.83032,-8.39109 4.35325,0.65281 6.77997,3.64256 6.77997,8.35302 0,3.27046 -0.90514,5.31389 -3.06788,6.926 -1.6225,1.20942 -7.40909,1.53327 -9.61586,0.53816 z m -17.67775,0.0602 c -1.19894,-0.60667 -3.16351,-3.22475 -3.16351,-4.21586 0,-0.43592 0.68692,-0.60845 2.42252,-0.60845 2.03917,0 2.45953,0.14156 2.65645,0.89458 0.48104,1.83951 4.06193,2.13821 4.6183,0.38524 0.36828,-1.16032 -0.43941,-2.05425 -2.19087,-2.42482 -3.10295,-0.65652 -5.63089,-2.06179 -6.31307,-3.50941 -1.89134,-4.01353 2.25348,-7.2606 8.14102,-6.37771 2.31372,0.34696 4.61565,2.24086 4.61565,3.79751 0,0.81523 -0.27356,0.93461 -2.14175,0.93461 -1.67518,0 -2.26787,-0.20194 -2.72066,-0.92697 -0.78091,-1.25044 -3.46259,-1.08311 -3.46259,0.21606 0,0.68205 0.69603,1.07662 3.30389,1.87294 1.81713,0.55486 3.78841,1.46403 4.38061,2.02038 2.28564,2.14725 1.66091,5.83419 -1.29385,7.63581 -1.69752,1.03504 -7.04605,1.21998 -8.85214,0.30609 z m -18.91351,-7.52431 0,-8.1 6.75,0 6.75,0 0,1.575 0,1.575 -4.275,0 -4.275,0 0,1.35 0,1.35 4.05,0 4.05,0 0,1.55748 0,1.55748 -3.9375,0.13002 -3.9375,0.13002 -0.13967,1.6875 -0.13966,1.6875 4.52716,0 4.52717,0 0,1.8 0,1.8 -6.975,0 -6.975,0 0,-8.1 z m -14.50684,7.39557 c -1.24648,-0.67633 -2.59316,-2.73988 -2.59316,-3.97357 0,-0.48326 0.60193,-0.71131 2.1375,-0.80984 1.91367,-0.1228 2.21927,-0.008 2.91838,1.10034 1.00908,1.59912 3.19737,1.85015 4.25071,0.48764 0.92509,-1.19661 0.16435,-1.86926 -3.49066,-3.08649 -4.8206,-1.6054 -6.1775,-3.42047 -4.95697,-6.63071 0.59183,-1.55663 2.4849,-2.62179 5.14365,-2.89414 3.37783,-0.34601 5.99226,0.4852 7.06623,2.24657 1.36511,2.23886 1.1764,2.56463 -1.48559,2.56463 -1.90236,0 -2.48035,-0.18189 -2.94566,-0.92697 -0.7932,-1.27012 -3.46259,-1.08109 -3.46259,0.2452 0,0.71137 0.5531,1.0425 2.71668,1.62639 5.06395,1.36664 6.50832,2.55353 6.50832,5.34814 0,2.08437 -1.20865,4.0441 -2.94044,4.76769 -2.00795,0.83898 -7.27159,0.80046 -8.8664,-0.0649 z m -11.43979,-7.95807 c -1.00315,-3.39476 -1.13105,-3.45801 -2.00003,-0.98895 -1.13243,3.21762 -1.09559,3.35145 0.9224,3.35145 l 1.77575,0 -0.69812,-2.3625 z m -6.94775,0.675 3.00482,-7.9875 2.85944,0 2.85944,0 2.86034,7.59421 c 1.57319,4.17682 2.86034,7.77119 2.86034,7.9875 0,0.21631 -1.09394,0.39329 -2.43098,0.39329 -2.2965,0 -2.45701,-0.0747 -2.90159,-1.35 -0.45753,-1.31248 -0.55157,-1.35 -3.38327,-1.35 -2.87039,0 -2.91695,0.0196 -3.20916,1.35 -0.28795,1.31103 -0.37197,1.35 -2.91036,1.35 l -2.61384,0 3.00482,-7.9875 z m -17.9905,1.125 c -0.0192,-0.30937 -0.40091,-1.575 -0.84829,-2.8125 -0.86921,-2.4043 -0.92196,-2.37156 -1.99389,1.2375 l -0.63486,2.1375 1.75596,0 c 1.12337,0 1.7434,-0.20264 1.72108,-0.5625 z m -10.20378,6.3 c 0.1142,-0.30937 1.47837,-3.95437 3.03148,-8.1 l 2.82384,-7.5375 2.76199,0 2.76199,0 1.49381,3.9375 c 0.8216,2.16562 2.18132,5.81062 3.0216,8.1 l 1.52779,4.1625 -2.65616,0 c -2.58541,0 -2.66407,-0.036 -2.95268,-1.35 -0.29221,-1.33041 -0.33877,-1.35 -3.20916,-1.35 -2.8317,0 -2.92574,0.0375 -3.38327,1.35 -0.4461,1.27969 -0.59974,1.35 -2.94973,1.35 -1.79404,0 -2.42175,-0.15544 -2.2715,-0.5625 z m -17.21134,-7.5375 0,-8.1 2.22801,0 2.22801,0 3.05949,4.3875 3.05949,4.3875 0.12879,-4.3875 0.1288,-4.3875 2.2337,0 2.23371,0 0,8.1 0,8.1 -2.3625,-0.0156 -2.3625,-0.0156 -2.925,-4.37143 -2.925,-4.37142 -0.12879,4.38699 -0.1288,4.38699 -2.2337,0 -2.23371,0 0,-8.1 z m -9,0 0,-8.1 2.475,0 2.475,0 0,8.1 0,8.1 -2.475,0 -2.475,0 0,-8.1 z m -14.625,7.4334 c -3.53788,-1.81624 -4.96593,-7.80977 -2.84086,-11.9231 1.43992,-2.78714 3.39999,-3.8394 7.11586,-3.82013 3.44203,0.0178 5.50871,0.94455 6.53577,2.93066 0.8799,1.70154 0.64368,2.07751 -1.53679,2.44589 -1.50449,0.25419 -1.91234,0.12901 -2.94529,-0.90394 -0.94113,-0.94113 -1.46025,-1.13496 -2.41383,-0.90127 -0.66818,0.16375 -1.5011,0.57786 -1.85094,0.92026 -0.8142,0.79686 -1.16165,5.02138 -0.54432,6.61816 0.87041,2.25141 4.62431,2.23608 5.59622,-0.0229 0.53311,-1.23908 0.5384,-1.24036 2.64207,-0.64153 2.05042,0.58368 2.09583,0.63464 1.66547,1.86916 -0.24333,0.69802 -1.05232,1.85345 -1.79775,2.56762 -1.2196,1.16844 -1.70187,1.31129 -4.81547,1.4263 -2.44287,0.0902 -3.85704,-0.0759 -4.81014,-0.56523 z m -11.925,-7.4334 0,-8.1 2.475,0 2.475,0 0,8.1 0,8.1 -2.475,0 -2.475,0 0,-8.1 z m -15.75,0 0,-8.1 6.3,0 6.3,0 0,1.5568 0,1.5568 -3.7125,0.1307 -3.7125,0.1307 0,1.35 0,1.35 3.2625,0.13221 3.2625,0.13222 0,1.53557 0,1.53557 -3.2625,0.13222 -3.2625,0.13221 -0.13221,3.2625 -0.13222,3.2625 -2.45528,0 -2.45529,0 0,-8.1 z m -8.79153,3.61826 c 1.02891,-1.13693 1.41526,-4.57101 0.70672,-6.28159 -0.99487,-2.40183 -4.65955,-2.73943 -5.83783,-0.53779 -0.26255,0.49057 -0.47736,2.01902 -0.47736,3.39654 0,1.90458 0.2156,2.72018 0.9,3.40458 1.18003,1.18003 3.64843,1.1896 4.70847,0.0183 z m -7.06601,3.55365 c -2.54221,-1.3422 -3.62422,-3.81069 -3.42237,-7.80781 0.27412,-5.42847 2.66945,-7.65617 8.25491,-7.67722 3.96639,-0.0149 6.00503,1.10485 7.45163,4.09313 0.81828,1.69035 0.94944,2.55737 0.7544,4.98712 -0.25995,3.2385 -1.04481,4.66541 -3.47645,6.32037 -2.00106,1.36191 -7.05789,1.40654 -9.56212,0.0844 z"
         style="fill:#000000"
         id="path3396" />
      <path
         inkscape:connector-curvature="0"
         id="path3392"
         d="m 543.10484,317.55277 c -4.2075,-11.22839 -8.19865,-21.90066 -8.86923,-23.71614 l -1.21923,-3.30089 3.11237,2.93605 c 3.38391,3.19222 7.61944,5.505 12.60109,6.88076 2.26619,0.62583 4.54669,0.80414 10.125,0.79165 6.51229,-0.0146 7.53285,-0.12696 10.68477,-1.17636 6.03106,-2.00799 10.5836,-5.70881 13.23671,-10.76029 1.16082,-2.21019 1.27248,-2.83594 1.27536,-7.14726 0.004,-5.6502 -0.75464,-7.57997 -4.61964,-11.75463 -4.45107,-4.80769 -12.38478,-7.99157 -30.7022,-12.32111 -11.42486,-2.7004 -18.56127,-4.72625 -26.20682,-7.43948 l -5.24341,-1.86077 -1.4103,-3.6745 c -0.77566,-2.02098 -5.87319,-15.52076 -11.32785,-29.99951 -5.45465,-14.47875 -11.51372,-30.56058 -13.46459,-35.7374 -1.95087,-5.17682 -3.54703,-9.56439 -3.54703,-9.75016 0,-0.18577 1.52183,-1.95547 3.38184,-3.93267 13.86978,-14.74367 34.24613,-21.2563 66.39361,-21.22054 28.45694,0.0317 48.422,6.15273 60.95849,18.68922 5.87702,5.87703 10.81176,14.58545 13.46118,23.75522 1.45545,5.03735 2.72794,12.41816 2.2181,12.86555 -0.33193,0.29126 -48.73162,3.22932 -52.60685,3.19345 -1.32617,-0.0123 -1.39236,-0.11376 -2.13327,-3.27076 -1.08428,-4.6201 -3.8052,-10.00521 -6.59652,-13.05547 -2.8893,-3.15732 -8.01563,-5.82244 -13.17011,-6.847 -6.78626,-1.34891 -15.77694,-0.64902 -20.22126,1.57414 -2.4601,1.2306 -5.59659,4.20284 -6.71178,6.36029 -3.84681,7.44205 -0.56753,13.99823 8.8154,17.62438 2.98499,1.15359 6.05304,1.9361 23.38617,5.9647 22.61483,5.25617 38.82285,10.8219 48.97243,16.8168 18.42314,10.88172 27.49102,27.23373 26.7124,48.17025 -1.10696,29.76537 -22.268,52.61657 -54.75983,59.13356 -8.83093,1.77125 -12.06725,2.09246 -23.85,2.36716 l -11.025,0.25703 -7.65,-20.41527 z"
         style="fill:#ff0000" />
      <path
         d="m 423.25935,263.42829 c 0.531,-2.3066 20.89062,-68.21614 21.07049,-68.21086 0.18277,0.005 20.10285,64.36444 20.99449,67.83036 l 0.26048,1.0125 -21.23548,0 c -18.00297,0 -21.21333,-0.0962 -21.08998,-0.632 z m -22.3411,73.8695 c 0.14056,-0.55688 2.22049,-7.695 4.62207,-15.8625 l 4.3665,-14.85 34.23073,-0.11529 34.23074,-0.11529 4.59054,15.41529 c 2.52479,8.47841 4.58614,15.66841 4.58078,15.97779 -0.008,0.44605 -9.00169,0.5625 -43.44334,0.5625 l -43.43357,0 0.25555,-1.0125 z"
         style="fill:#000000"
         id="path3388"
         inkscape:connector-curvature="0" />
    </g>
  </g>
</svg>
